<svg xmlns="http://www.w3.org/2000/svg" xmlns:xlink="http://www.w3.org/1999/xlink" version="1.0" x="0" y="0" width="2400" height="609.3490231645424" viewBox="46.85540435791015 93.734150390625 246.28919128417968 62.53169921875" preserveAspectRatio="xMidYMid meet" color-interpolation-filters="sRGB"><g><defs><linearGradient id="92" x1="0%" y1="0%" x2="100%" y2="0%"><stop offset="0%" stop-color="#fa71cd"></stop> <stop offset="100%" stop-color="#9b59b6"></stop></linearGradient><linearGradient id="93" x1="0%" y1="0%" x2="100%" y2="0%"><stop offset="0%" stop-color="#f9d423"></stop> <stop offset="100%" stop-color="#f83600"></stop></linearGradient><linearGradient id="94" x1="0%" y1="0%" x2="100%" y2="0%"><stop offset="0%" stop-color="#0064d2"></stop> <stop offset="100%" stop-color="#1cb0f6"></stop></linearGradient><linearGradient id="95" x1="0%" y1="0%" x2="100%" y2="0%"><stop offset="0%" stop-color="#f00978"></stop> <stop offset="100%" stop-color="#3f51b1"></stop></linearGradient><linearGradient id="96" x1="0%" y1="0%" x2="100%" y2="0%"><stop offset="0%" stop-color="#7873f5"></stop> <stop offset="100%" stop-color="#ec77ab"></stop></linearGradient><linearGradient id="97" x1="0%" y1="0%" x2="100%" y2="0%"><stop offset="0%" stop-color="#f9d423"></stop> <stop offset="100%" stop-color="#e14fad"></stop></linearGradient><linearGradient id="98" x1="0%" y1="0%" x2="100%" y2="0%"><stop offset="0%" stop-color="#009efd"></stop> <stop offset="100%" stop-color="#2af598"></stop></linearGradient><linearGradient id="99" x1="0%" y1="0%" x2="100%" y2="0%"><stop offset="0%" stop-color="#ffcc00"></stop> <stop offset="100%" stop-color="#00b140"></stop></linearGradient><linearGradient id="100" x1="0%" y1="0%" x2="100%" y2="0%"><stop offset="0%" stop-color="#d51007"></stop> <stop offset="100%" stop-color="#ff8177"></stop></linearGradient><linearGradient id="102" x1="0%" y1="0%" x2="100%" y2="0%"><stop offset="0%" stop-color="#a2b6df"></stop> <stop offset="100%" stop-color="#0c3483"></stop></linearGradient><linearGradient id="103" x1="0%" y1="0%" x2="100%" y2="0%"><stop offset="0%" stop-color="#7ac5d8"></stop> <stop offset="100%" stop-color="#eea2a2"></stop></linearGradient><linearGradient id="104" x1="0%" y1="0%" x2="100%" y2="0%"><stop offset="0%" stop-color="#00ecbc"></stop> <stop offset="100%" stop-color="#007adf"></stop></linearGradient><linearGradient id="105" x1="0%" y1="0%" x2="100%" y2="0%"><stop offset="0%" stop-color="#b88746"></stop> <stop offset="100%" stop-color="#fdf5a6"></stop></linearGradient></defs><g fill="#333" class="icon-text-wrapper icon-svg-group iconsvg" transform="translate(49.27000427246094,96.14875030517578)"><g class="iconsvg-imagesvg" transform="translate(0,5.244815826416016)"><g><rect fill="#333" fill-opacity="0" stroke-width="2" x="0" y="0" width="60" height="47.21286708004155" class="image-rect"></rect> <svg x="0" y="0" width="60" height="47.21286708004155" filtersec="colorsb732487112" class="image-svg-svg primary" style="overflow: visible;"><svg xmlns="http://www.w3.org/2000/svg" viewBox="0.006990882568061352 0.0011070966720581055 172.97366333007812 136.1092987060547"><path d="M39.57.16h84.12a2.92 2.92 0 0 1 2.91 1.64q16.8 29.2 33.66 58.35Q164 66.58 167.71 73c.14.25.26.51.4.75.41.71.26 1-.61 1h-23.7a2.52 2.52 0 0 1-2.57-1.45q-8.52-14.91-17.14-29.74C120.47 37.43 117 31.16 113.3 25a3.2 3.2 0 0 0-3.3-1.87c-18.32 0-36.63 0-54.94.06a3.34 3.34 0 0 1-3.5-2C48 14.79 44.28 8.49 40.62 2.15 40.29 1.58 40 1 39.57.16zM65.26 105c-.63 0-.7-.55-.92-.93q-14.16-24.51-28.29-49-8.92-15.48-17.89-30.94a2.1 2.1 0 0 1 0-2.44C22.13 14.87 26.06 8 30 1.18c.91-1.59.92-1.57 1.86.05l38.95 67.44c2.55 4.43 5.08 8.86 7.63 13.29C75.71 86.64 73 91.31 70.29 96c-1.7 3-3.63 5.88-5.03 9z" fill="#1d99f0"></path><path d="M47.1 135.68c-2.13-3.62-4.29-7.23-6.39-10.87Q20.57 89.92.42 55a2.19 2.19 0 0 1 0-2.56c4-6.89 8-13.82 12-20.75.48-.83.72-1.29 1.4-.11Q37 71.82 60.17 112c.16.29.29.59.43.89a11.28 11.28 0 0 0-.84 1.12c-2.62 4.52-5.2 9.06-7.82 13.58-1.58 2.7-3.04 5.5-4.84 8.09zM65.26 105c1.4-3.15 3.33-6 5-9 2.74-4.69 5.45-9.36 8.18-14h92.85c2 0 2.05 0 1.06 1.72q-5.83 10.14-11.66 20.3a2 2 0 0 1-2 1.16H66.54c-.43-.05-.85-.11-1.28-.18z" fill="#0a479b"></path><path d="M47.1 135.68c1.8-2.59 3.26-5.39 4.84-8.11 2.62-4.52 5.2-9.06 7.82-13.58a11.28 11.28 0 0 1 .84-1.12h92.98c1.91 0 1.93 0 .94 1.73-2.2 3.86-4.43 7.71-6.65 11.56-1.67 2.91-3.38 5.8-5 8.74a2 2 0 0 1-2 1.18H48.73a2.1 2.1 0 0 1-1.63-.4z" fill="#1d99f0"></path></svg></svg> </g></g> <g transform="translate(67,0)"><g fill-rule="" class="tp-name iconsvg-namesvg" transform="translate(0,0)"><g transform="scale(1)"><g><path d="M42.7-6.34L33.16-6.34 33.16-7.79 40.59-7.79 40.59-11.79 33.16-11.79 33.16-13.18 39.28-13.18 39.28-23.45 5.71-23.45 14.85-25.56 14.85-24.07 21.29-24.07 21.29-35.87 3.1-35.87 3.1-31.59 7.02-31.59 4.91-29.7C5.58-29.38 6.79-28.62 7.83-27.95 5.54-27.45 3.38-27 2.11-26.77L3.24-22.9 5.17-23.31 5.17-13.18 11.29-13.18 11.29-11.79 3.87-11.79 3.87-7.79 11.29-7.79 11.29-6.34 1.71-6.34 1.71-2.07 16.11-2.07C12.51-1.13 7.83-0.27 3.19 0.27L6.08 5.58C10.75 4.63 17.05 2.92 20.88 1.62L18.54-2.07 26.01-2.07 23.89 1.53 38.92 5.54 40.91 0.09C37.03-0.77 31.14-1.57 26.86-2.07L42.7-2.07ZM23.36-23.54C25.88-24.03 31.54-25.11 34.2-25.83L34.2-24.03 40.59-24.03 40.59-35.87 22.99-35.87 22.99-31.59 26.32-31.59 24.3-29.79C24.88-29.47 26.14-28.8 27.22-28.13 25.11-27.63 23.22-27.36 22.36-27.22ZM14.85-31.59L14.85-26.82 14.35-29.47 10.93-28.66 12.11-30.15C11.56-30.55 10.75-31.05 9.86-31.59ZM34.2-31.59L34.2-27.63 33.8-29.56C32.94-29.34 31.81-29.11 30.42-28.8L31.5-30.15C30.96-30.55 30.11-31.05 29.16-31.59ZM18.77-20.7L18.77-19.57 12.42-19.57 12.42-20.7ZM31.95-19.57L25.7-19.57 25.7-20.7 31.95-20.7ZM12.42-15.75L12.42-16.83 18.77-16.83 18.77-15.75ZM25.7-16.83L31.95-16.83 31.95-15.75 25.7-15.75ZM18.18-13.18L26.23-13.18 26.23-11.79 18.18-11.79ZM18.18-7.79L26.23-7.79 26.23-6.34 18.18-6.34ZM78.57-10.3C76.09-13.05 72.41-16.29 69.75-18.31 70.02-19.57 70.2-20.88 70.29-22.27 70.42-23.76 70.38-24.66 70.38-25.52L63.09-25.74 63.09-22.99C62.86-17.32 61.47-14.35 55.17-9.9L55.17-25.24 59.85-31.09C57.82-32.98 54.72-35.73 52.65-37.17L47.65-32.13C49.23-30.69 52.06-28.08 54-26.14L48.1-26.28 48.1 4.81 55.17 4.81 55.17-7.02 58.81-2.83C62.46-5.58 65.11-8.28 66.96-11.21 69.25-8.91 71.64-6.08 73.44-3.78ZM60.7-35.32L60.7-28.21 79.2-28.21 79.2-5.22C79.2-3.38 78.48-2.7 76.36-2.56L72.77-2.38 74.97 5.17 79.51 4.86C84.42 4.5 86.35 3.38 86.35-2.25L86.35-35.32ZM128.34-6.97L128.34-31.99 114.25-31.99 114.25-36.41 106.96-36.59 106.96-31.99 93.02-31.99 93.02-5.54 106.96-5.54 106.96-2.88C106.96 3.01 108.67 4.37 114.93 4.5 118.03 4.59 121.09 4.59 124.2 4.5 129.33 4.37 130.63 3.28 131.71-1.17 132.21-3.01 132.34-4.09 132.52-5.58ZM106.96-25.24L106.96-21.69 100.3-21.69 100.3-25.24ZM120.91-25.24L120.91-21.69 114.25-21.69 114.25-25.24ZM100.3-12.29L100.3-15.57 106.96-15.57 106.96-12.29ZM120.91-15.57L120.91-12.29 114.25-12.29 114.25-15.57ZM121.23-2.25C119.66-2.16 118.13-2.16 116.59-2.25 115.02-2.38 114.25-2.79 114.25-4.72L114.25-5.54 124.78-5.54 124.69-5.08C124.33-2.61 123.66-2.38 121.23-2.25ZM176.17-18.63L159.93-18.63 159.93-19.35C163.66-21.51 169.2-25.06 173.16-27.81L173.16-35.41 139.54-35.41 139.54-28.17 161.64-28.17C158.8-26.28 153.49-22.95 152.55-22.45L152.55-18.63 135.72-18.63 135.72-11.34 152.55-11.34 152.55-5.4C152.55-3.55 151.74-2.97 149.62-2.83L145.71-2.56 148.14 5.04 152.68 4.63C158.22 4.14 159.93 2.92 159.93-1.75L159.93-11.34 176.17-11.34Z" transform="translate(-1.7100000381469727, 37.16999816894531)"></path></g> </g></g> <g fill-rule="" class="tp-slogan iconsvg-slogansvg" fill="#333" transform="translate(5,48.75)"><rect x="0" height="1" y="3.9750003814697266" width="2.404998779296875"></rect> <rect height="1" y="3.9750003814697266" width="2.404998779296875" x="162.05499267578125"></rect> <g transform="translate(5.404998779296875,0)"><g transform="scale(1)"><path d="M5.67-7.13L5.63-7.13L3.66 0L2.44 0L0.19-8.58L1.41-8.58L3.05-1.59L3.09-1.59L5.02-8.58L6.28-8.58L8.20-1.59L8.25-1.59L9.84-8.58L11.11-8.58L8.86 0L7.64 0L5.67-7.13ZM12.38-8.58L13.55-8.58L13.55 0L12.38 0L12.38-8.58ZM16.92-8.58L21.23-1.64L21.23-8.58L22.36-8.58L22.36 0L21.05 0L16.69-6.94L16.64-6.94L16.64 0L15.52 0L15.52-8.58L16.92-8.58ZM30.56-3.61L27.94-3.61L27.94-4.59L31.69-4.59L31.69 0L30.94 0L30.66-1.08Q29.67 0.09 27.84 0.14L27.84 0.14Q26.11 0.14 25.17-0.75L25.17-0.75Q23.77-2.06 23.81-4.36L23.81-4.36Q24.14-8.63 27.89-8.81L27.89-8.81Q31.08-8.63 31.55-6L31.55-6L30.42-6Q29.95-7.78 27.84-7.83L27.84-7.83Q25.17-7.64 25.03-4.31L25.03-4.31Q25.03-0.75 27.89-0.75L27.89-0.75Q28.92-0.75 29.67-1.31L29.67-1.31Q30.61-2.06 30.56-3.61L30.56-3.61ZM42.33-3.89L38.11-3.89L38.11 0L36.94 0L36.94-8.58L42.89-8.58L42.89-7.59L38.11-7.59L38.11-4.92L42.33-4.92L42.33-3.89ZM44.06-8.58L45.23-8.58L45.23-1.03L49.59-1.03L49.59 0L44.06 0L44.06-8.58ZM50.91-8.58L52.08-8.58L52.08 0L50.91 0L50.91-8.58ZM61.22-6.05L61.22-6.05L60.09-6.05Q59.67-7.78 57.70-7.83L57.70-7.83Q54.98-7.69 54.89-4.36L54.89-4.36Q54.89-0.80 57.75-0.80L57.75-0.80Q59.72-0.84 60.19-3.19L60.19-3.19L61.31-3.19Q60.80 0.05 57.52 0.14L57.52 0.14Q53.77 0 53.67-4.31L53.67-4.31Q53.86-8.63 57.70-8.81L57.70-8.81Q60.75-8.72 61.22-6.05ZM65.20-4.31L63.84-3.05L63.84 0L62.67 0L62.67-8.58L63.84-8.58L63.84-4.41L68.02-8.58L69.66-8.58L66.05-5.11L69.75 0L68.20 0L65.20-4.31ZM71.95-1.03L77.11-1.03L77.11 0L70.78 0L70.78-8.58L77.02-8.58L77.02-7.59L71.95-7.59L71.95-4.92L76.64-4.92L76.64-3.89L71.95-3.89L71.95-1.03ZM82.73-3.70L79.92-3.70L79.92 0L78.75 0L78.75-8.58L82.73-8.58Q85.59-8.58 85.59-6.28L85.59-6.28Q85.59-4.88 84.38-4.22L84.38-4.22Q85.41-3.94 85.41-2.58L85.41-2.58L85.50-1.03Q85.45-0.38 85.92-0.19L85.92-0.19L85.92 0L84.47 0Q84.33-0.61 84.28-2.16L84.28-2.16Q84.33-3.70 82.73-3.70L82.73-3.70ZM82.83-7.64L79.92-7.64L79.92-4.69L82.64-4.69Q84.38-4.69 84.38-6.19L84.38-6.19Q84.38-7.64 82.83-7.64L82.83-7.64ZM91.88-1.03L97.03-1.03L97.03 0L90.70 0L90.70-8.58L96.94-8.58L96.94-7.59L91.88-7.59L91.88-4.92L96.56-4.92L96.56-3.89L91.88-3.89L91.88-1.03ZM98.53-8.58L99.70-8.58L99.70-1.03L104.06-1.03L104.06 0L98.53 0L98.53-8.58ZM106.50-1.03L111.66-1.03L111.66 0L105.33 0L105.33-8.58L111.56-8.58L111.56-7.59L106.50-7.59L106.50-4.92L111.19-4.92L111.19-3.89L106.50-3.89L106.50-1.03ZM120.33-6.05L120.33-6.05L119.20-6.05Q118.78-7.78 116.81-7.83L116.81-7.83Q114.09-7.69 114-4.36L114-4.36Q114-0.80 116.86-0.80L116.86-0.80Q118.83-0.84 119.30-3.19L119.30-3.19L120.42-3.19Q119.91 0.05 116.63 0.14L116.63 0.14Q112.88 0 112.78-4.31L112.78-4.31Q112.97-8.63 116.81-8.81L116.81-8.81Q119.86-8.72 120.33-6.05ZM123.98-7.59L121.08-7.59L121.08-8.58L128.02-8.58L128.02-7.59L125.11-7.59L125.11 0L123.98 0L123.98-7.59ZM133.17-3.70L130.36-3.70L130.36 0L129.19 0L129.19-8.58L133.17-8.58Q136.03-8.58 136.03-6.28L136.03-6.28Q136.03-4.88 134.81-4.22L134.81-4.22Q135.84-3.94 135.84-2.58L135.84-2.58L135.94-1.03Q135.89-0.38 136.36-0.19L136.36-0.19L136.36 0L134.91 0Q134.77-0.61 134.72-2.16L134.72-2.16Q134.77-3.70 133.17-3.70L133.17-3.70ZM133.27-7.64L130.36-7.64L130.36-4.69L133.08-4.69Q134.81-4.69 134.81-6.19L134.81-6.19Q134.81-7.64 133.27-7.64L133.27-7.64ZM144.47-4.27L144.47-4.27Q144.28-7.64 141.47-7.83L141.47-7.83Q138.61-7.69 138.47-4.27L138.47-4.27Q138.61-0.94 141.47-0.80L141.47-0.80Q144.28-0.98 144.47-4.27ZM145.64-4.27L145.64-4.27Q145.36 0 141.47 0.14L141.47 0.14Q137.53 0 137.25-4.27L137.25-4.27Q137.48-8.72 141.47-8.81L141.47-8.81Q145.36-8.67 145.64-4.27ZM148.41-8.58L152.72-1.64L152.72-8.58L153.84-8.58L153.84 0L152.53 0L148.17-6.94L148.13-6.94L148.13 0L147 0L147-8.58L148.41-8.58Z" transform="translate(-0.1875, 8.8125)"></path></g></g></g></g></g><defs v-gra="od"></defs></g></svg>